<svg width="28" height="30" viewBox="0 0 28 30" fill="none" xmlns="http://www.w3.org/2000/svg">
<path d="M4.35816 26.1122C4.01274 26.3179 3.57178 26.4135 3.03528 26.4135C2.57962 26.4135 2.16806 26.3106 1.79324 26.1122C1.42577 25.9137 1.1024 25.6271 0.837825 25.267C0.573248 24.8995 0.367467 24.4733 0.22048 23.9662C0.0734934 23.4664 0 22.9079 0 22.3052C0 21.7026 0.0734934 21.1367 0.22048 20.6296C0.367467 20.1225 0.573248 19.6888 0.837825 19.3287C1.1024 18.9686 1.41842 18.6893 1.79324 18.4909C2.16806 18.2925 2.57962 18.1896 3.03528 18.1896C3.55708 18.1896 3.99069 18.2851 4.34346 18.4688C4.69623 18.6526 4.9755 18.8878 5.18863 19.167L4.24057 20.4458C4.10828 20.2694 3.96129 20.1298 3.79226 20.0269C3.63057 19.924 3.41744 19.8726 3.16757 19.8726C2.93239 19.8726 2.7266 19.9314 2.55757 20.0563C2.38119 20.1812 2.24155 20.3503 2.11661 20.5708C1.99167 20.7912 1.90348 21.0411 1.84468 21.3424C1.78589 21.6438 1.75649 21.9598 1.75649 22.2979C1.75649 22.6359 1.78589 22.9519 1.84468 23.2459C1.90348 23.5399 1.99167 23.7971 2.11661 24.0176C2.24155 24.2381 2.38854 24.4145 2.56492 24.5394C2.7413 24.6643 2.94709 24.7231 3.18226 24.7231C3.41744 24.7231 3.62322 24.6643 3.79961 24.5468C3.97599 24.4292 4.11563 24.2895 4.21852 24.1278L5.19598 25.3552C4.98285 25.6565 4.70358 25.9064 4.35816 26.1122Z" fill="white"/>
<path d="M9.20142 20.2621C9.06913 20.1078 8.91479 19.9902 8.73841 19.902C8.56202 19.8138 8.37829 19.7771 8.18721 19.7771C7.99613 19.7771 7.81239 19.8359 7.65071 19.9682C7.49637 20.0931 7.41553 20.2989 7.41553 20.5855C7.41553 20.828 7.49637 21.0191 7.65806 21.1514C7.81974 21.2837 8.05492 21.438 8.37094 21.5997C8.54733 21.6879 8.73841 21.7908 8.92949 21.9157C9.12792 22.0407 9.30431 22.1877 9.46599 22.364C9.62768 22.5404 9.76732 22.7536 9.87021 22.9961C9.98045 23.246 10.0319 23.5326 10.0319 23.8706C10.0319 24.2896 9.96575 24.657 9.83346 24.9804C9.70117 25.3038 9.52479 25.5683 9.29696 25.7741C9.06913 25.9873 8.8119 26.1416 8.51793 26.2518C8.22395 26.3547 7.91528 26.4135 7.59926 26.4135C7.1289 26.4135 6.70264 26.3253 6.31313 26.1489C5.92361 25.9726 5.61494 25.7668 5.37976 25.5316L6.28373 24.2087C6.45276 24.3851 6.6512 24.5247 6.86433 24.635C7.08481 24.7452 7.31264 24.7967 7.54047 24.7967C7.7536 24.7967 7.93733 24.7305 8.08432 24.5835C8.2313 24.4439 8.3048 24.2455 8.3048 24.0029C8.3048 23.7604 8.21661 23.5399 8.04022 23.3929C7.86384 23.2386 7.60661 23.0843 7.26854 22.9152C7.05541 22.8123 6.85698 22.7021 6.6659 22.5772C6.47481 22.4522 6.31313 22.2979 6.17349 22.1215C6.0265 21.9451 5.91626 21.7393 5.83542 21.5042C5.75458 21.269 5.71048 20.9897 5.71048 20.6663C5.71048 20.2327 5.78397 19.8579 5.92361 19.5492C6.06325 19.2406 6.25433 18.9833 6.48216 18.7849C6.71734 18.5865 6.97457 18.4395 7.25384 18.3439C7.54047 18.2484 7.81974 18.197 8.10637 18.197C8.53263 18.197 8.91479 18.2631 9.25286 18.4027C9.59093 18.5424 9.87756 18.7335 10.1054 18.9686L9.18672 20.2621H9.20142Z" fill="white"/>
<path d="M14.2798 20.2621C14.1475 20.1078 13.9932 19.9902 13.8168 19.902C13.6404 19.8138 13.4567 19.7771 13.2656 19.7771C13.0745 19.7771 12.8908 19.8359 12.7291 19.9682C12.5747 20.0931 12.4939 20.2989 12.4939 20.5855C12.4939 20.828 12.5747 21.0191 12.7364 21.1514C12.8981 21.2837 13.1333 21.438 13.4493 21.5997C13.6257 21.6879 13.8168 21.7908 14.0079 21.9157C14.2063 22.0407 14.3827 22.1877 14.5444 22.364C14.706 22.5404 14.8457 22.7536 14.9486 22.9961C15.0588 23.246 15.1103 23.5326 15.1103 23.8706C15.1103 24.2896 15.0441 24.657 14.9118 24.9804C14.7795 25.3038 14.6032 25.5683 14.3753 25.7741C14.1475 25.9873 13.8903 26.1416 13.5963 26.2518C13.3023 26.3547 12.9937 26.4135 12.6776 26.4135C12.2073 26.4135 11.781 26.3253 11.3915 26.1489C11.002 25.9726 10.6933 25.7668 10.4581 25.5316L11.3621 24.2087C11.5311 24.3851 11.7296 24.5247 11.9427 24.635C12.1632 24.7452 12.391 24.7967 12.6188 24.7967C12.832 24.7967 13.0157 24.7305 13.1627 24.5835C13.3097 24.4439 13.3832 24.2455 13.3832 24.0029C13.3832 23.7604 13.295 23.5399 13.1186 23.3929C12.9422 23.2386 12.685 23.0843 12.3469 22.9152C12.1338 22.8123 11.9353 22.7021 11.7443 22.5772C11.5532 22.4522 11.3915 22.2979 11.2519 22.1215C11.1049 21.9451 10.9946 21.7393 10.9138 21.5042C10.8329 21.269 10.7888 20.9897 10.7888 20.6663C10.7888 20.2327 10.8623 19.8579 11.002 19.5492C11.1416 19.2406 11.3327 18.9833 11.5605 18.7849C11.7957 18.5865 12.0529 18.4395 12.3322 18.3439C12.6188 18.2484 12.8981 18.197 13.1847 18.197C13.611 18.197 13.9932 18.2631 14.3312 18.4027C14.6693 18.5424 14.9559 18.7335 15.1838 18.9686L14.2651 20.2621H14.2798Z" fill="white"/>
<path d="M26.3988 5.65899L21.3351 0.639392C20.9162 0.22783 20.365 0 19.777 0H5.74716C4.52717 0 3.54236 0.992161 3.54236 2.2048V16.1979H5.01223V2.2048C5.01223 1.80059 5.34295 1.46987 5.74716 1.46987H18.5424V6.30573C18.5424 7.51837 19.5272 8.51053 20.7472 8.51053H25.583V27.7952C25.583 28.1994 25.2523 28.5301 24.8481 28.5301H3.67465C3.98332 29.3827 4.79175 30 5.74716 30H24.8481C26.0681 30 27.0529 29.0078 27.0529 27.7952V7.2244C27.0529 6.6291 26.8177 6.0779 26.3988 5.65899ZM20.7472 7.04067C20.3429 7.04067 20.0122 6.70995 20.0122 6.30573V1.51396C20.1225 1.55071 20.218 1.60216 20.2988 1.683L25.3625 6.7026C25.4581 6.79814 25.5095 6.91573 25.5463 7.04067H20.7472Z" fill="white"/>
</svg>
