<svg width="28" height="30" viewBox="0 0 28 30" fill="none" xmlns="http://www.w3.org/2000/svg">
<path d="M3.57178 26.2077V22.9446H1.74914V26.2077H0V18.4027H1.74914V21.3571H3.56443V18.4027H5.32092V26.2077H3.56443H3.57178Z" fill="white"/>
<path d="M9.17196 19.902V26.2077H7.43752V19.902H6.00439V18.4027H10.5977V19.902H9.16461H9.17196Z" fill="white"/>
<path d="M16.6683 26.2077L16.7344 20.85H16.6903L15.3748 26.2077H14.1327L12.8613 20.85H12.8319L12.8907 26.2077H11.2959V18.4027H13.5227L14.7795 23.4297H14.8236L16.0509 18.4027H18.4101V26.2077H16.6756H16.6683Z" fill="white"/>
<path d="M19.7844 26.2077V18.4027H21.5703V24.5762H23.6502V26.2077H19.7844Z" fill="white"/>
<path d="M26.4502 5.65899L21.3865 0.639392C20.9676 0.22783 20.4164 0 19.8285 0H5.79123C4.57124 0 3.58643 0.992161 3.58643 2.2048V16.1979H5.05629V2.2048C5.05629 1.80059 5.38701 1.46987 5.79123 1.46987H18.5938V6.30573C18.5938 7.51837 19.5786 8.51053 20.7986 8.51053H25.6344V27.7952C25.6344 28.1994 25.3037 28.5301 24.8995 28.5301H3.71871C4.02739 29.3827 4.83581 30 5.79123 30H24.8922C26.1121 30 27.097 29.0078 27.097 27.7952V7.2244C27.097 6.6291 26.8618 6.0779 26.4429 5.65899H26.4502ZM20.7986 7.04067C20.3944 7.04067 20.0636 6.70995 20.0636 6.30573V1.51396C20.1739 1.55071 20.2694 1.60216 20.3503 1.683L25.414 6.7026C25.5095 6.79814 25.5609 6.91573 25.5977 7.04067H20.7986Z" fill="white"/>
</svg>
