<svg width="23" height="30" viewBox="0 0 23 30" fill="none" xmlns="http://www.w3.org/2000/svg">
<path d="M10.4342 16.1057C10.4342 16.1057 8.76184 12.8871 8.82493 10.5294C8.86958 8.85118 12.6599 7.18558 14.1498 4.77162C15.6397 2.35087 13.9683 0 13.9683 0C13.9683 0 14.3381 1.73452 13.3452 3.53212C12.359 5.32294 8.69972 6.38093 7.27386 9.47821C5.85286 12.5774 10.4342 16.1047 10.4342 16.1047V16.1057Z" fill="white"/>
<path d="M16.6959 6.31879C16.6959 6.31879 10.9944 8.48621 10.9944 10.9633C10.9944 13.4403 12.5406 14.2508 12.792 15.0554C13.0385 15.8601 12.3591 17.2248 12.3591 17.2248C12.3591 17.2248 14.5896 15.6718 14.213 13.881C13.8432 12.0834 12.1067 11.5233 13.1007 9.7257C13.7665 8.52503 16.6959 6.31879 16.6959 6.31879Z" fill="white"/>
<path d="M9.81983 19.3806C15.0865 19.1923 17.0035 17.5315 17.0035 17.5315C13.5966 18.4614 4.55125 18.3993 4.48913 17.7198C4.42604 17.0355 7.27484 16.4755 7.27484 16.4755C7.27484 16.4755 2.8177 16.4755 2.44692 17.5936C2.07517 18.7069 4.55222 19.5679 9.8208 19.3796L9.81983 19.3806Z" fill="white"/>
<path d="M17.4374 21.9955C17.4374 21.9955 22.5914 20.8948 22.0828 18.0916C21.4665 14.6847 17.8703 16.6075 17.8703 16.6075C17.8703 16.6075 20.4114 16.6075 20.656 18.1537C20.9074 19.6999 17.4374 21.9945 17.4374 21.9945V21.9955Z" fill="white"/>
<path d="M14.8983 20.5056C14.8983 20.5056 13.5967 20.8511 11.6738 21.0656C9.09584 21.3539 5.97235 21.1287 5.72775 20.6939C5.48121 20.261 6.16065 20.0086 6.16065 20.0086C3.06143 20.757 4.75906 22.0528 8.38631 22.3032C11.503 22.5167 16.1358 21.3733 16.1358 21.3733L14.8983 20.5056Z" fill="white"/>
<path d="M6.90895 23.2155C6.90895 23.2155 5.50057 23.2524 5.41904 23.994C5.33653 24.7355 6.28678 25.4023 9.75581 25.6033C13.2268 25.811 15.6582 24.6608 15.6582 24.6608L14.0945 23.7047C14.0945 23.7047 13.1016 23.9124 11.5728 24.1201C10.046 24.3279 6.90895 23.9561 6.78374 23.6678C6.65853 23.3786 6.90895 23.2155 6.90895 23.2155Z" fill="white"/>
<path d="M9.1773 28.5016C16.6075 28.4948 19.8766 27.1369 20.4114 26.5594C20.9452 25.9799 20.2406 25.5276 20.2406 25.5276C20.2406 25.5276 20.4919 25.8168 20.1648 26.1439C19.8319 26.4769 16.8142 27.3009 11.9805 27.5455C7.15257 27.7969 1.90534 27.0932 1.7413 26.4769C1.57727 25.8537 4.4251 25.3587 4.4251 25.3587C4.09799 25.4024 0.131998 25.4839 0.0058157 26.5594C-0.119396 27.6339 1.74033 28.5016 9.17633 28.5016H9.1773Z" fill="white"/>
<path d="M17.5198 28.9976C14.2566 29.6528 4.34351 29.2373 4.34351 29.2373C4.34351 29.2373 10.7866 30.7709 18.141 29.4887C21.6557 28.8724 21.8566 27.1747 21.8566 27.1747C21.8566 27.1747 20.7811 28.3317 17.5198 28.9976Z" fill="white"/>
</svg>
