<svg width="27" height="30" viewBox="0 0 27 30" fill="none" xmlns="http://www.w3.org/2000/svg">
<path d="M3.85105 25.6786C3.48359 26.1489 2.91769 26.3841 2.13866 26.3841C1.59481 26.3841 1.1318 26.2298 0.749633 25.9211C0.367467 25.6124 0.117589 25.2008 0 24.6937L1.43312 24.0544C1.47722 24.2307 1.55071 24.3851 1.64625 24.5174C1.74914 24.6496 1.88143 24.7158 2.05047 24.7158C2.29299 24.7158 2.45468 24.6203 2.52817 24.4218C2.60902 24.2234 2.64576 23.9441 2.64576 23.5987V18.4027H4.40225V23.753C4.40225 24.5688 4.21852 25.2155 3.8584 25.6786H3.85105Z" fill="white"/>
<path d="M8.98084 20.2621C8.84855 20.1078 8.69421 19.9902 8.51783 19.902C8.34144 19.8138 8.15771 19.7771 7.96663 19.7771C7.77554 19.7771 7.59181 19.8359 7.43013 19.9682C7.27579 20.0931 7.19495 20.2989 7.19495 20.5855C7.19495 20.828 7.27579 21.0191 7.43747 21.1514C7.59916 21.2837 7.83434 21.438 8.15036 21.5997C8.32675 21.6879 8.51783 21.7908 8.70891 21.9157C8.90734 22.0407 9.08373 22.1877 9.24541 22.364C9.4071 22.5404 9.54674 22.7536 9.64963 22.9961C9.75987 23.246 9.81131 23.5326 9.81131 23.8707C9.81131 24.2896 9.74517 24.657 9.61288 24.9804C9.48059 25.3038 9.30421 25.5683 9.07638 25.7741C8.84855 25.9873 8.59132 26.1416 8.29735 26.2518C8.00337 26.3547 7.6947 26.4135 7.37868 26.4135C6.90832 26.4135 6.48206 26.3253 6.09255 26.1489C5.70303 25.9726 5.39436 25.7668 5.15918 25.5316L6.06315 24.2087C6.23218 24.3851 6.43062 24.5247 6.64375 24.635C6.86423 24.7452 7.09206 24.7967 7.31989 24.7967C7.53302 24.7967 7.71675 24.7305 7.86374 24.5835C8.01072 24.4439 8.08422 24.2455 8.08422 24.0029C8.08422 23.7604 7.99602 23.5399 7.81964 23.3929C7.64326 23.2386 7.38603 23.0843 7.04796 22.9152C6.83483 22.8123 6.6364 22.7021 6.44531 22.5772C6.25423 22.4522 6.09255 22.2979 5.95291 22.1215C5.80592 21.9451 5.69568 21.7393 5.61484 21.5042C5.534 21.269 5.4899 20.9897 5.4899 20.6663C5.4899 20.2327 5.56339 19.8579 5.70303 19.5492C5.84267 19.2406 6.03375 18.9833 6.26158 18.7849C6.49676 18.5865 6.75399 18.4395 7.03326 18.3439C7.31989 18.2484 7.59916 18.197 7.88578 18.197C8.31205 18.197 8.69421 18.2631 9.03228 18.4027C9.37035 18.5424 9.65698 18.7335 9.8848 18.9686L8.96614 20.2621H8.98084Z" fill="white"/>
<path d="M25.8329 5.65899L20.7692 0.639392C20.3503 0.22783 19.7991 0 19.2112 0H5.17392C3.95393 0 2.96912 0.992161 2.96912 2.2048V16.1979H4.43898V2.2048C4.43898 1.80059 4.7697 1.46987 5.17392 1.46987H17.9765V6.30573C17.9765 7.51837 18.9613 8.51053 20.1813 8.51053H25.0171V27.7952C25.0171 28.1994 24.6864 28.5301 24.2822 28.5301H3.1014C3.41008 29.3827 4.2185 30 5.17392 30H24.2748C25.4948 30 26.4796 29.0078 26.4796 27.7952V7.2244C26.4796 6.6291 26.2445 6.0779 25.8256 5.65899H25.8329ZM20.1813 7.04067C19.7771 7.04067 19.4463 6.70995 19.4463 6.30573V1.51396C19.5566 1.55071 19.6521 1.60216 19.733 1.683L24.7967 6.7026C24.8922 6.79814 24.9436 6.91573 24.9804 7.04067H20.1813Z" fill="white"/>
</svg>
