<svg width="26" height="30" viewBox="0 0 26 30" fill="none" xmlns="http://www.w3.org/2000/svg">
<g clip-path="url(#clip0_2_128)">
<path d="M24.4906 6.56727L14.0832 0.325417C13.3226 -0.108472 12.3899 -0.108472 11.6292 0.325417L1.22123 6.5666C0.458577 7.03397 -0.00477392 7.86626 -8.68457e-05 8.76083V21.2265C-0.00477392 22.1217 0.458577 22.954 1.22123 23.4227L3.95045 25.0525L3.96585 25.0612C5.34385 25.7662 5.87148 25.7662 6.48281 25.7662C8.63485 25.7662 9.97201 24.3735 9.97201 22.1311V10.0444C9.97469 9.73038 9.72225 9.47326 9.40822 9.46991H7.90969C7.59566 9.47326 7.34323 9.73038 7.3459 10.0444V22.1311C7.35729 22.4833 7.1832 22.8154 6.88724 23.0062C6.49219 23.2473 5.91835 23.1964 5.27087 22.8622L2.65548 21.2881C2.63539 21.274 2.62334 21.2512 2.62334 21.2265V8.93693C2.62401 8.90813 2.63874 8.88202 2.66284 8.86595L12.8298 2.63883C12.8452 2.63146 12.8633 2.63146 12.8787 2.63883L23.0516 8.86595C23.0751 8.88336 23.0891 8.91081 23.0885 8.9396V21.2265C23.0885 21.2519 23.0777 21.2767 23.0583 21.2934L12.8767 27.3632C12.8592 27.3692 12.8405 27.3692 12.8231 27.3632L10.2231 25.8191C10.0657 25.7167 9.86554 25.706 9.69882 25.7917L9.67605 25.8051C8.95826 26.2302 8.76542 26.3407 8.09986 26.5831C7.99138 26.6226 7.73627 26.717 7.71418 26.9695C7.69208 27.2219 7.93447 27.4013 8.15007 27.5266L11.6252 29.6605C11.9955 29.8822 12.4187 29.9993 12.8505 30H12.8894C13.3099 29.9933 13.7217 29.8761 14.0832 29.6605L24.4906 23.4247C25.2532 22.9546 25.7159 22.1217 25.7119 21.2265V8.76083C25.7159 7.86626 25.2532 7.03464 24.4906 6.56727Z" fill="white"/>
<path d="M16.3298 19.1541C13.8329 19.1541 13.3006 18.4564 13.1426 17.3301C13.1058 17.0529 12.8714 16.8447 12.5922 16.84H11.2664C10.9551 16.8467 10.708 17.1032 10.7133 17.4145C10.7133 18.3908 11.0562 21.5773 16.3325 21.5773C17.9649 21.5773 19.3228 21.1956 20.2582 20.4732C21.1937 19.7507 21.6945 18.6994 21.6945 17.4467C21.6945 14.9324 20.054 14.244 16.8233 13.7941C13.539 13.3374 13.539 13.1051 13.539 12.5962C13.539 12.2299 13.539 11.3722 15.9133 11.3722C17.6027 11.3722 18.5073 11.5858 18.7965 12.7114C18.8494 12.9685 19.0738 13.154 19.3362 13.158H20.6667C20.8254 13.1566 20.9754 13.0863 21.0792 12.9665C21.1816 12.8473 21.2325 12.6919 21.2211 12.5353C21.049 10.1549 19.3088 8.94763 15.9153 8.94763C12.8312 8.94763 10.9905 10.337 10.9905 12.6638C10.9905 15.2149 12.8982 15.9361 15.764 16.2347C19.1119 16.5809 19.1119 17.0857 19.1119 17.5317C19.1139 18.2267 18.8253 19.1541 16.3298 19.1541Z" fill="white"/>
</g>
<defs>
<clipPath id="clip0_2_128">
<rect width="25.712" height="30" fill="white"/>
</clipPath>
</defs>
</svg>
