<svg width="30" height="30" viewBox="0 0 30 30" fill="none" xmlns="http://www.w3.org/2000/svg">
<path d="M12.4296 8.81058C11.2704 8.54549 9.6447 9.41477 9.29389 9.72534C9.29702 9.79537 9.30233 9.8843 9.30835 9.98574C9.35139 10.7104 9.43144 12.0592 9.21456 13.6078C9.05965 14.7139 9.39805 15.7932 10.143 16.5691C10.7287 17.1793 11.4992 17.5169 12.2911 17.5192C12.3822 17.1464 12.5289 16.7538 12.6867 16.3315L12.749 16.1645C12.8294 15.9485 12.9236 15.7396 13.0231 15.5187C13.5067 14.4462 14.1085 13.1116 13.4149 9.90957C13.2809 9.29106 12.9585 8.93151 12.4296 8.81058V8.81058ZM13.0284 9.74303C12.9988 9.95553 12.662 10.2435 12.2915 10.2435C12.2597 10.2435 12.2276 10.2414 12.1954 10.2369C11.9732 10.2061 11.7489 10.0664 11.5952 9.86312C11.5408 9.79128 11.4524 9.65206 11.47 9.52619C11.4767 9.47866 11.5011 9.40959 11.5799 9.35003C11.7201 9.24401 11.9971 9.20479 12.3029 9.24726C12.6784 9.29949 13.0655 9.47686 13.0283 9.74303H13.0284Z" fill="white"/>
<path d="M9.53551 17.1501C8.61122 16.1874 8.19048 14.854 8.38132 13.4916C8.58674 12.0256 8.50983 10.731 8.46848 10.0353C8.45727 9.84544 8.44907 9.7073 8.44931 9.60971C8.4434 9.3569 8.38638 5.22134 10.7877 2.80087C10.8085 2.77981 10.8304 2.76044 10.8514 2.73974C9.38807 2.26383 5.74646 1.32537 3.5315 2.89317C2.17043 3.85666 1.54572 5.64948 1.67447 8.22193C1.71534 9.03537 2.23083 11.9361 3.11306 14.8208C4.13259 18.1547 5.28884 20.257 6.28547 20.5889C6.43845 20.6397 6.90343 20.7947 7.57697 19.9864C8.52876 18.8436 9.42292 17.871 9.83425 17.4311C9.73009 17.3423 9.63039 17.2486 9.53551 17.1499V17.1501Z" fill="white"/>
<path d="M22.0182 4.3174C23.3583 5.87449 24.0158 7.59487 24.0701 8.16969C24.0784 8.2579 24.072 8.33214 24.0561 8.39507C24.0773 8.99457 24.0003 9.50297 23.9245 9.9944C23.8629 10.3932 23.7992 10.8057 23.7839 11.2865C23.769 11.7402 23.8273 12.2232 23.8889 12.7346C24.0388 13.9806 24.2074 15.3861 23.3456 16.8065L23.3878 16.8591C23.4217 16.9013 23.4555 16.9438 23.489 16.9864C26.8237 11.7485 27.9756 5.67703 26.9295 4.34267C25.5657 2.60304 23.6392 1.69369 21.204 1.64002C20.2427 1.61872 19.3842 1.73978 18.7563 1.86974C20.216 2.51255 21.285 3.46569 22.0181 4.3174H22.0182Z" fill="white"/>
<path d="M29.0754 17.9707C28.9002 17.441 28.4411 17.0721 27.8475 16.9835C27.5676 16.9417 27.247 16.9595 26.8678 17.0376C26.2067 17.1739 25.7161 17.2256 25.3582 17.2357C26.7094 14.9587 27.8081 12.3619 28.4405 9.91762C29.4633 5.96521 28.9167 4.16457 28.2782 3.35017C26.588 1.19443 24.122 0.0363561 21.147 0.000858305C19.56 -0.0185151 18.1667 0.294227 17.4399 0.519126C16.7632 0.399998 16.0357 0.333455 15.2722 0.321061C13.8411 0.298318 12.5766 0.609616 11.4962 1.24966C10.898 1.04774 9.93798 0.763159 8.82935 0.581578C6.22186 0.154281 4.12047 0.487239 2.58327 1.57119C0.722017 2.88352 -0.140917 5.16368 0.0186979 8.34826C0.0693311 9.35941 0.636061 12.4357 1.52817 15.3532C2.04089 17.0302 2.58773 18.4228 3.15337 19.4926C3.95555 21.0098 4.81378 21.9031 5.77738 22.2239C6.31746 22.4035 7.29866 22.5293 8.33074 21.6714C8.46154 21.8295 8.6361 21.9866 8.86769 22.1326C9.16184 22.3178 9.52158 22.469 9.88083 22.5587C11.1755 22.8817 12.388 22.8009 13.4226 22.3481C13.429 22.5317 13.434 22.7073 13.4381 22.8588C13.4449 23.1045 13.4518 23.3455 13.4607 23.5709C13.522 25.0948 13.6259 26.2796 13.9337 27.1087C13.9505 27.1543 13.9733 27.2237 13.9972 27.2975C14.1508 27.7666 14.4074 28.5522 15.0606 29.1673C15.7369 29.8046 16.555 30 17.3044 30C17.6802 30 18.0387 29.9508 18.3532 29.8835C19.4741 29.6437 20.7473 29.2784 21.6682 27.9694C22.539 26.732 22.9623 24.8683 23.0388 21.9318C23.0487 21.8487 23.0579 21.7694 23.0667 21.6939L23.085 21.5386L23.2902 21.5567L23.343 21.5602C24.4848 21.6122 25.8808 21.3704 26.7382 20.973C27.4157 20.6591 29.5867 19.5152 29.0755 17.9706L29.0754 17.9707ZM26.3604 20.1696C25.6803 20.4847 24.596 20.6839 23.6563 20.6839C23.2058 20.6839 22.789 20.6378 22.4652 20.537C22.3118 21.9446 21.9857 24.5687 21.7957 25.6677C21.4405 27.7239 20.5225 28.6566 18.4082 29.1089C18.0483 29.186 17.7211 29.2205 17.4239 29.2205C15.3982 29.2205 14.7568 27.6201 14.4942 26.9652C14.1737 26.1653 14.0624 23.5396 14.085 20.8751C13.3541 21.5347 12.4397 21.8757 11.4006 21.8757C10.9733 21.8757 10.5252 21.8184 10.0602 21.7022C9.92677 21.669 8.75545 21.355 8.771 20.6075C8.78535 19.9234 9.76305 19.7224 10.1312 19.6464C11.4254 19.3805 11.5091 19.2744 11.9111 18.765C12.0068 18.6427 12.1046 18.5222 12.2044 18.4033C12.2031 18.3882 12.2015 18.3731 12.2004 18.3579C11.6202 18.3424 11.0529 18.1879 10.5364 17.9112C9.74039 18.7596 8.9692 19.6307 8.22356 20.5234C7.61223 21.2569 7.02476 21.4725 6.54555 21.4725C6.35001 21.4725 6.1728 21.4367 6.01897 21.3856C4.70528 20.9482 3.45669 18.8219 2.30816 15.0661C1.43558 12.2126 0.882596 9.23282 0.834133 8.26415C0.689949 5.3851 1.43426 3.34728 3.04632 2.20714C4.39738 1.2517 6.2907 0.961706 8.67323 1.34448C10.0514 1.56613 11.1782 1.95228 11.6143 2.11424C12.6182 1.431 13.8307 1.09576 15.2334 1.11838C15.9983 1.13089 16.7009 1.22908 17.3454 1.38912C17.6515 1.25495 19.2301 0.777599 21.0986 0.798536C23.8165 0.827296 26.0619 1.87394 27.5917 3.82512C27.9711 4.30909 28.1552 5.10147 28.1384 6.17964C28.1232 7.16203 27.9377 8.36727 27.602 9.66505C26.893 12.4048 25.5788 15.3411 23.9812 17.7703C24.2229 17.948 24.9589 18.2412 27.0141 17.8179C27.7064 17.6753 28.123 17.8009 28.2525 18.1916C28.5025 18.9466 27.124 19.8155 26.3601 20.1696H26.3604Z" fill="white"/>
<path d="M23.5463 18.4953C23.5034 18.4671 23.4642 18.4383 23.4285 18.4092C23.371 18.4293 23.3113 18.446 23.2503 18.4631C22.8617 18.572 22.4944 18.6749 22.5423 19.6598C22.6445 19.7431 23.0793 19.8784 23.9331 19.8386C24.7061 19.8023 25.5199 19.6333 26.0062 19.4081C26.5717 19.1458 26.9705 18.8539 27.2037 18.6365L27.1848 18.6402C25.4566 18.9963 24.2326 18.9475 23.5463 18.4955V18.4953Z" fill="white"/>
<path d="M22.7311 17.3837C22.4615 17.0476 22.0924 16.587 21.8073 15.8972C21.7636 15.7917 21.6251 15.5435 21.4645 15.2562C20.5889 13.6888 18.7669 10.4273 19.9446 8.74701C20.4859 7.97448 21.5538 7.66511 23.1239 7.82455C22.9151 7.20544 22.392 6.05748 21.4257 4.91794C20.3046 3.5955 18.3178 2.00857 15.2198 1.95791C13.6475 1.93192 12.357 2.41372 11.3879 3.38901C9.84893 4.9384 9.4376 7.38714 9.32861 8.69743C9.40034 8.65761 9.47702 8.61657 9.56092 8.57409C9.95104 8.37663 10.7333 8.03236 11.5883 7.94404C13.0145 7.79651 13.9553 8.43162 14.237 9.73205C14.9892 13.2041 14.2961 14.7411 13.7901 15.8631C13.6966 16.0709 13.608 16.2673 13.5374 16.4567L13.4747 16.6248C13.3254 17.0244 13.1876 17.3934 13.1081 17.7201C13.4808 17.625 13.7907 17.7532 13.9597 17.823C14.3849 17.9989 14.7394 18.4232 14.8848 18.9305C14.908 19.0113 14.9254 19.0936 14.9368 19.1769C14.9496 19.219 14.9562 19.2637 14.955 19.3102C14.8573 22.7964 14.9951 25.9532 15.2756 26.6532C15.7102 27.7375 16.3696 28.6861 18.2321 28.2878C20.0285 27.9033 20.6674 27.2579 20.9668 25.5248C21.1935 24.2131 21.6401 20.5003 21.7028 19.7073C21.6249 18.1269 22.4791 17.8106 22.9546 17.6738C22.8936 17.5866 22.8136 17.4866 22.7309 17.3836L22.7311 17.3837Z" fill="white"/>
<path d="M13.6378 18.5991C13.4095 18.5045 13.2836 18.4523 13.0084 18.76L13.0081 18.7602C12.8233 18.9662 12.6899 19.1353 12.5722 19.2846C12.0588 19.9354 11.8236 20.1562 10.3012 20.4689C9.98655 20.5337 9.80524 20.5988 9.70325 20.6466C9.82525 20.7297 10.0332 20.8299 10.2646 20.8876C11.387 21.1679 12.9499 21.1872 14.0225 19.6882C14.1496 19.5105 14.1107 19.2821 14.0761 19.1618C14.0031 18.907 13.8229 18.6755 13.6378 18.5991V18.5991Z" fill="white"/>
<path d="M23.0931 9.8665C23.1539 9.47277 23.2112 9.09541 23.2181 8.67991C21.5565 8.47402 20.8946 8.85643 20.6338 9.22826C19.7582 10.4777 21.4686 13.5397 22.1991 14.8473C22.3869 15.1831 22.5224 15.4258 22.5849 15.5769C22.6497 15.7336 22.724 15.8861 22.8074 16.0337C23.3098 14.9666 23.18 13.8851 23.0535 12.8346C22.9909 12.3145 22.9262 11.7766 22.9429 11.2593C22.9599 10.7278 23.0275 10.2899 23.0929 9.86638L23.0931 9.8665ZM22.2562 9.62318C22.1752 9.70802 22.0046 9.85543 21.7722 9.88755C21.7423 9.89177 21.7126 9.89369 21.6831 9.89369C21.3349 9.89369 21.0408 9.61609 21.018 9.45352C20.9894 9.24438 21.3312 9.08566 21.6837 9.03657C22.0367 8.98759 22.4086 9.04704 22.4378 9.25569C22.4509 9.34943 22.3794 9.49371 22.2562 9.62318V9.62318Z" fill="white"/>
</svg>
