<svg width="30" height="27" viewBox="0 0 30 27" fill="none" xmlns="http://www.w3.org/2000/svg">
<path d="M24.6652 8.66971C24.3459 8.56034 24.024 8.45909 23.6996 8.36472C23.7534 8.14598 23.8028 7.92599 23.8484 7.70475C24.5796 4.14865 24.1015 1.28377 22.4697 0.340683C20.9073 -0.56428 18.3449 0.378806 15.76 2.63371C15.5056 2.8562 15.2569 3.08557 15.0131 3.32118C14.8506 3.16432 14.6838 3.0112 14.5131 2.8612C11.8039 0.450053 9.08837 -0.56553 7.45844 0.380681C5.896 1.28752 5.43165 3.98053 6.08975 7.35102C6.15537 7.68413 6.22974 8.01599 6.31161 8.3466C5.92725 8.45597 5.55602 8.57284 5.20103 8.69658C2.02867 9.80591 0 11.5452 0 13.3489C0 15.1526 2.17741 17.0812 5.4854 18.2143C5.75351 18.3056 6.02475 18.3906 6.29786 18.4687C6.20912 18.8224 6.13037 19.1799 6.06225 19.5418C5.43727 22.8541 5.92475 25.4834 7.48406 26.3846C9.09462 27.3152 11.7964 26.359 14.43 24.0528C14.6381 23.8703 14.8469 23.6778 15.055 23.4747C15.3181 23.7291 15.5894 23.9766 15.8675 24.2159C18.4174 26.4146 20.9354 27.3027 22.4922 26.399C24.1015 25.4653 24.6246 22.6404 23.9453 19.2036C23.8934 18.9412 23.8334 18.673 23.7653 18.3999C23.9553 18.3437 24.1415 18.2856 24.3234 18.2256C27.7607 17.0837 30 15.2376 30 13.3508C29.9987 11.5383 27.9051 9.78779 24.6652 8.66971ZM16.6031 3.60242C18.8173 1.67063 20.8873 0.908159 21.831 1.45314C22.8353 2.03374 23.2259 4.37489 22.5947 7.44539C22.5528 7.64538 22.5078 7.84474 22.4597 8.04349C21.1385 7.74287 19.7985 7.53101 18.4486 7.40851C17.6761 6.29543 16.8287 5.23548 15.9131 4.23677C16.1375 4.01928 16.3668 3.80804 16.6018 3.60242H16.6031ZM8.85776 14.8901C9.12899 15.4151 9.41273 15.9338 9.70835 16.4456C10.0096 16.9681 10.3233 17.4831 10.6502 17.9899C9.72147 17.8887 8.79838 17.74 7.8853 17.5443C8.15029 16.6869 8.47652 15.7963 8.85776 14.8901ZM8.85776 11.8696C8.48277 10.9827 8.16529 10.1103 7.90467 9.26781C8.76089 9.07594 9.67335 8.91908 10.6246 8.80033C10.3058 9.29781 9.99896 9.80279 9.7046 10.3146C9.41023 10.8265 9.12712 11.3452 8.85588 11.8696H8.85776ZM9.53898 13.3801C9.93396 12.5564 10.3596 11.7483 10.8152 10.9565C11.2708 10.1646 11.7551 9.39155 12.2695 8.63596C13.162 8.56846 14.0769 8.53284 15.0013 8.53284C15.9256 8.53284 16.8462 8.56846 17.738 8.63659C18.2467 9.39031 18.7286 10.1609 19.1836 10.949C19.6386 11.7371 20.0698 12.5408 20.4766 13.3614C20.0748 14.1882 19.6448 14.9994 19.1867 15.795C18.7323 16.5869 18.253 17.3625 17.7493 18.1224C16.8587 18.1849 15.9368 18.2193 14.9994 18.2193C14.0619 18.2193 13.1576 18.1899 12.2832 18.1331C11.7651 17.375 11.2764 16.5981 10.817 15.8025C10.3577 15.0069 9.93084 14.1995 9.5371 13.3801H9.53898ZM20.296 16.4369C20.5979 15.9125 20.8879 15.3819 21.166 14.8438C21.5472 15.7075 21.8835 16.5906 22.1735 17.4887C21.2491 17.6968 20.3148 17.8562 19.3742 17.9668C19.6917 17.4631 19.9992 16.9531 20.296 16.4369ZM21.1535 11.8702C20.8766 11.3433 20.5891 10.8221 20.2904 10.3078C19.9985 9.80029 19.6948 9.29906 19.3786 8.80408C20.3354 8.92532 21.2535 9.08657 22.1141 9.28343C21.8372 10.1615 21.5166 11.0246 21.1535 11.8702ZM15.0137 5.15486C15.6381 5.8367 16.2268 6.5498 16.7793 7.29102C15.5981 7.23477 14.4163 7.23477 13.2332 7.29102C13.8163 6.5198 14.4131 5.80421 15.0137 5.15486ZM8.10341 1.49126C9.10712 0.908784 11.3264 1.74125 13.6657 3.82054C13.815 3.95366 13.9657 4.09303 14.1157 4.2374C13.1951 5.2361 12.342 6.29481 11.562 7.40664C10.2152 7.52788 8.87776 7.73662 7.55844 8.03161C7.48219 7.72475 7.41344 7.41601 7.35219 7.1054C6.78659 4.21615 7.16095 2.03811 8.10341 1.49126ZM6.64035 17.2312C6.39036 17.16 6.14349 17.0825 5.89975 16.9994C4.43732 16.4994 3.22924 15.8469 2.3999 15.1363C1.65743 14.4995 1.2812 13.8639 1.2812 13.3489C1.2812 12.2546 2.90988 10.8584 5.62602 9.91153C5.96725 9.79279 6.31161 9.68404 6.65847 9.58592C7.06158 10.8821 7.55031 12.1508 8.12091 13.3826C7.54344 14.632 7.04908 15.9175 6.64035 17.2312ZM13.5857 23.0854C12.4214 24.1053 11.2552 24.8284 10.2271 25.1928C9.30336 25.5196 8.56777 25.529 8.12341 25.2721C7.1772 24.7253 6.78347 22.6135 7.32032 19.7811C7.38407 19.448 7.45719 19.1143 7.53906 18.7812C8.87213 19.068 10.2227 19.2643 11.582 19.368C12.3701 20.4855 13.2301 21.5504 14.1569 22.5554C13.9707 22.7385 13.7801 22.9147 13.5857 23.0854ZM15.0494 21.6342C14.4419 20.9773 13.8357 20.2505 13.2444 19.4693C13.8188 19.4918 14.4038 19.503 14.9994 19.503C15.595 19.503 16.2156 19.4899 16.8118 19.463C16.2618 20.2161 15.6731 20.9411 15.0494 21.6342ZM22.8315 23.421C22.6528 24.3859 22.2934 25.0297 21.8491 25.2871C20.9035 25.8359 18.8817 25.1228 16.7018 23.2422C16.4518 23.0272 16.2018 22.7966 15.9475 22.5548C16.8562 21.5454 17.6961 20.4767 18.4617 19.3549C19.8285 19.2393 21.186 19.0293 22.5241 18.7268C22.5853 18.9743 22.6397 19.2168 22.6866 19.4543C22.9872 20.9729 23.0303 22.3466 22.8315 23.421ZM23.919 17.0062C23.7553 17.0606 23.5865 17.1131 23.4153 17.1644C22.9959 15.8619 22.4878 14.5895 21.896 13.3558C22.4659 12.1383 22.9534 10.8846 23.3559 9.60217C23.6628 9.69154 23.9609 9.78529 24.2477 9.88466C27.0239 10.8421 28.7176 12.2596 28.7176 13.3489C28.7176 14.5113 26.8883 16.02 23.919 17.0062Z" fill="white"/>
<path d="M14.9994 16.0338C16.4838 16.0388 17.6906 14.8395 17.6956 13.3551C17.7006 11.8708 16.5013 10.664 15.0169 10.659C13.5326 10.654 12.3258 11.8533 12.3208 13.3376V13.3464C12.3177 14.8276 13.5158 16.0307 14.9969 16.0338H14.9994Z" fill="white"/>
</svg>
