<svg width="30" height="30" viewBox="0 0 30 30" fill="none" xmlns="http://www.w3.org/2000/svg">
<g clip-path="url(#clip0_3_28)">
<path d="M27.3148 1.75309C26.8981 2.75309 26.358 3.69445 25.7099 4.56173C19.9691 -1.37654 10.5 -1.53703 4.56172 4.20371C-1.37656 9.94445 -1.53705 19.4136 4.20369 25.3519C4.40122 25.5586 4.60801 25.7562 4.81789 25.9506L5.37344 26.4445C11.6821 31.7654 21.108 30.963 26.429 24.6543C28.4691 22.2346 29.6883 19.2315 29.9105 16.0741C30.3426 12.3086 29.2006 7.49383 27.3179 1.75309H27.3148ZM6.9753 26.0741C6.53085 26.6173 5.73147 26.7006 5.18517 26.2593C4.64196 25.8148 4.55863 25.0154 4.99999 24.4691C5.44135 23.9259 6.24381 23.8426 6.78702 24.284C7.31789 24.7346 7.40122 25.5247 6.97221 26.0741H6.9753ZM27.2222 21.5988C23.5494 26.5062 15.6481 24.8395 10.6173 25.0864C10.6173 25.0864 9.72221 25.1482 8.82715 25.2716C8.82715 25.2716 9.16665 25.1173 9.59875 24.963C13.1481 23.7284 14.8148 23.4815 16.9753 22.3704C21.0185 20.3025 25.0617 15.7654 25.8642 11.0741C24.321 15.5803 19.6296 19.4691 15.3704 21.0432C12.4383 22.1235 7.16048 23.1728 7.16048 23.1728L6.94443 23.0494C3.36418 21.2901 3.24073 13.5124 9.78394 11.0124C12.6543 9.90124 15.3704 10.5185 18.4876 9.77778C21.7901 9.00618 25.6173 6.53704 27.1605 3.2963C28.8889 8.51235 30.9876 16.5988 27.2222 21.5988Z" fill="white"/>
</g>
<defs>
<clipPath id="clip0_3_28">
<rect width="30" height="29.963" fill="white"/>
</clipPath>
</defs>
</svg>
